<svg width="52" height="52" viewBox="0 0 52 52" fill="none" xmlns="http://www.w3.org/2000/svg">
<g filter="url(#filter0_dii_605_751)">
<path d="M2 11C2 5.47715 6.47715 1 12 1H40C45.5229 1 50 5.47715 50 11V39C50 44.5229 45.5228 49 40 49H12C6.47715 49 2 44.5228 2 39V11Z" fill="white"/>
<path d="M12 1.5H40C45.2467 1.5 49.5 5.75329 49.5 11V39C49.5 44.2467 45.2467 48.5 40 48.5H12C6.7533 48.5 2.5 44.2467 2.5 39V11C2.5 5.7533 6.75329 1.5 12 1.5Z" stroke="#D5D7DA"/>
<path d="M23.3951 32.3711L23.9795 33.6856C24.1533 34.0768 24.4368 34.4093 24.7958 34.6426C25.1547 34.8759 25.5737 35.0001 26.0018 35C26.4299 35.0001 26.8488 34.8759 27.2078 34.6426C27.5667 34.4093 27.8503 34.0768 28.024 33.6856L28.6084 32.3711C28.8165 31.9047 29.1664 31.5159 29.6084 31.26C30.0532 31.0034 30.5678 30.8941 31.0784 30.9478L32.5084 31.1C32.9341 31.145 33.3637 31.0656 33.7451 30.8713C34.1265 30.6771 34.4434 30.3763 34.6573 30.0056C34.8715 29.635 34.9735 29.2103 34.9511 28.7829C34.9286 28.3555 34.7825 27.9438 34.5307 27.5978L33.684 26.4344C33.3825 26.0171 33.2214 25.5148 33.224 25C33.2239 24.4866 33.3865 23.9864 33.6884 23.5711L34.5351 22.4078C34.787 22.0618 34.933 21.6501 34.9555 21.2227C34.978 20.7953 34.8759 20.3705 34.6618 20C34.4479 19.6292 34.131 19.3285 33.7496 19.1342C33.3681 18.94 32.9386 18.8605 32.5129 18.9056L31.0829 19.0578C30.5722 19.1114 30.0577 19.0021 29.6129 18.7456C29.17 18.4883 28.82 18.0974 28.6129 17.6289L28.024 16.3144C27.8503 15.9232 27.5667 15.5907 27.2078 15.3574C26.8488 15.1241 26.4299 14.9999 26.0018 15C25.5737 14.9999 25.1547 15.1241 24.7958 15.3574C24.4368 15.5907 24.1533 15.9232 23.9795 16.3144L23.3951 17.6289C23.188 18.0974 22.838 18.4883 22.3951 18.7456C21.9503 19.0021 21.4358 19.1114 20.9251 19.0578L19.4907 18.9056C19.065 18.8605 18.6354 18.94 18.254 19.1342C17.8725 19.3285 17.5557 19.6292 17.3418 20C17.1276 20.3705 17.0256 20.7953 17.048 21.2227C17.0705 21.6501 17.2166 22.0618 17.4684 22.4078L18.3151 23.5711C18.617 23.9864 18.7796 24.4866 18.7795 25C18.7796 25.5134 18.617 26.0137 18.3151 26.4289L17.4684 27.5922C17.2166 27.9382 17.0705 28.3499 17.048 28.7773C17.0256 29.2047 17.1276 29.6295 17.3418 30C17.5559 30.3706 17.8728 30.6712 18.2542 30.8654C18.6355 31.0596 19.065 31.1392 19.4907 31.0944L20.9207 30.9422C21.4313 30.8886 21.9459 30.9979 22.3907 31.2544C22.8352 31.511 23.1869 31.902 23.3951 32.3711Z" stroke="#414651" stroke-width="2" stroke-linecap="round" stroke-linejoin="round"/>
<path d="M26 28C27.6568 28 29 26.6569 29 25C29 23.3431 27.6568 22 26 22C24.3431 22 23 23.3431 23 25C23 26.6569 24.3431 28 26 28Z" stroke="#414651" stroke-width="2" stroke-linecap="round" stroke-linejoin="round"/>
</g>
<defs>
<filter id="filter0_dii_605_751" x="0" y="0" width="52" height="52" filterUnits="userSpaceOnUse" color-interpolation-filters="sRGB">
<feFlood flood-opacity="0" result="BackgroundImageFix"/>
<feColorMatrix in="SourceAlpha" type="matrix" values="0 0 0 0 0 0 0 0 0 0 0 0 0 0 0 0 0 0 127 0" result="hardAlpha"/>
<feOffset dy="1"/>
<feGaussianBlur stdDeviation="1"/>
<feColorMatrix type="matrix" values="0 0 0 0 0.0392157 0 0 0 0 0.0496732 0 0 0 0 0.0705882 0 0 0 0.05 0"/>
<feBlend mode="normal" in2="BackgroundImageFix" result="effect1_dropShadow_605_751"/>
<feBlend mode="normal" in="SourceGraphic" in2="effect1_dropShadow_605_751" result="shape"/>
<feColorMatrix in="SourceAlpha" type="matrix" values="0 0 0 0 0 0 0 0 0 0 0 0 0 0 0 0 0 0 127 0" result="hardAlpha"/>
<feOffset dy="-2"/>
<feComposite in2="hardAlpha" operator="arithmetic" k2="-1" k3="1"/>
<feColorMatrix type="matrix" values="0 0 0 0 0.0392157 0 0 0 0 0.0496732 0 0 0 0 0.0705882 0 0 0 0.05 0"/>
<feBlend mode="normal" in2="shape" result="effect2_innerShadow_605_751"/>
<feColorMatrix in="SourceAlpha" type="matrix" values="0 0 0 0 0 0 0 0 0 0 0 0 0 0 0 0 0 0 127 0" result="hardAlpha"/>
<feMorphology radius="1" operator="erode" in="SourceAlpha" result="effect3_innerShadow_605_751"/>
<feOffset/>
<feComposite in2="hardAlpha" operator="arithmetic" k2="-1" k3="1"/>
<feColorMatrix type="matrix" values="0 0 0 0 0.0392157 0 0 0 0 0.0496732 0 0 0 0 0.0705882 0 0 0 0.18 0"/>
<feBlend mode="normal" in2="effect2_innerShadow_605_751" result="effect3_innerShadow_605_751"/>
</filter>
</defs>
</svg>
