<svg width="52" height="52" viewBox="0 0 52 52" fill="none" xmlns="http://www.w3.org/2000/svg">
<g filter="url(#filter0_dii_605_745)">
<path d="M2 11C2 5.47715 6.47715 1 12 1H40C45.5229 1 50 5.47715 50 11V39C50 44.5229 45.5228 49 40 49H12C6.47715 49 2 44.5228 2 39V11Z" fill="white"/>
<path d="M12 1.5H40C45.2467 1.5 49.5 5.75329 49.5 11V39C49.5 44.2467 45.2467 48.5 40 48.5H12C6.7533 48.5 2.5 44.2467 2.5 39V11C2.5 5.7533 6.75329 1.5 12 1.5Z" stroke="#D5D7DA"/>
<path d="M23 22H23.01M29 28H29.01M30 21L22 29M23.5 22C23.5 22.2761 23.2761 22.5 23 22.5C22.7239 22.5 22.5 22.2761 22.5 22C22.5 21.7239 22.7239 21.5 23 21.5C23.2761 21.5 23.5 21.7239 23.5 22ZM29.5 28C29.5 28.2761 29.2761 28.5 29 28.5C28.7239 28.5 28.5 28.2761 28.5 28C28.5 27.7239 28.7239 27.5 29 27.5C29.2761 27.5 29.5 27.7239 29.5 28ZM36 25C36 30.5228 31.5228 35 26 35C20.4772 35 16 30.5228 16 25C16 19.4772 20.4772 15 26 15C31.5228 15 36 19.4772 36 25Z" stroke="#414651" stroke-width="2" stroke-linecap="round" stroke-linejoin="round"/>
</g>
<defs>
<filter id="filter0_dii_605_745" x="0" y="0" width="52" height="52" filterUnits="userSpaceOnUse" color-interpolation-filters="sRGB">
<feFlood flood-opacity="0" result="BackgroundImageFix"/>
<feColorMatrix in="SourceAlpha" type="matrix" values="0 0 0 0 0 0 0 0 0 0 0 0 0 0 0 0 0 0 127 0" result="hardAlpha"/>
<feOffset dy="1"/>
<feGaussianBlur stdDeviation="1"/>
<feColorMatrix type="matrix" values="0 0 0 0 0.0392157 0 0 0 0 0.0496732 0 0 0 0 0.0705882 0 0 0 0.05 0"/>
<feBlend mode="normal" in2="BackgroundImageFix" result="effect1_dropShadow_605_745"/>
<feBlend mode="normal" in="SourceGraphic" in2="effect1_dropShadow_605_745" result="shape"/>
<feColorMatrix in="SourceAlpha" type="matrix" values="0 0 0 0 0 0 0 0 0 0 0 0 0 0 0 0 0 0 127 0" result="hardAlpha"/>
<feOffset dy="-2"/>
<feComposite in2="hardAlpha" operator="arithmetic" k2="-1" k3="1"/>
<feColorMatrix type="matrix" values="0 0 0 0 0.0392157 0 0 0 0 0.0496732 0 0 0 0 0.0705882 0 0 0 0.05 0"/>
<feBlend mode="normal" in2="shape" result="effect2_innerShadow_605_745"/>
<feColorMatrix in="SourceAlpha" type="matrix" values="0 0 0 0 0 0 0 0 0 0 0 0 0 0 0 0 0 0 127 0" result="hardAlpha"/>
<feMorphology radius="1" operator="erode" in="SourceAlpha" result="effect3_innerShadow_605_745"/>
<feOffset/>
<feComposite in2="hardAlpha" operator="arithmetic" k2="-1" k3="1"/>
<feColorMatrix type="matrix" values="0 0 0 0 0.0392157 0 0 0 0 0.0496732 0 0 0 0 0.0705882 0 0 0 0.18 0"/>
<feBlend mode="normal" in2="effect2_innerShadow_605_745" result="effect3_innerShadow_605_745"/>
</filter>
</defs>
</svg>
